<?xml version="1.0" standalone="no"?>
<!DOCTYPE svg PUBLIC "-//W3C//DTD SVG 20010904//EN"
 "http://www.w3.org/TR/2001/REC-SVG-20010904/DTD/svg10.dtd">
<svg version="1.0" xmlns="http://www.w3.org/2000/svg"
 width="1280.000000pt" height="960.000000pt" viewBox="0 0 1280.000000 960.000000"
 preserveAspectRatio="xMidYMid meet">

<g transform="translate(0.000000,960.000000) scale(0.100000,-0.100000)"
fill="#000000" stroke="none">
<path d="M0 4800 l0 -4800 6400 0 6400 0 0 4800 0 4800 -6400 0 -6400 0 0
-4800z m4627 1200 c19 -37 19 -2363 0 -2400 -17 -33 -43 -37 -59 -8 -19 34
-19 2382 0 2416 16 29 42 25 59 -8z m-1975 3 c72 -43 92 -140 44 -213 -14 -21
-34 -41 -46 -45 -18 -6 -20 -15 -20 -77 0 -55 4 -75 20 -95 11 -14 20 -40 20
-58 0 -18 -9 -44 -20 -58 -16 -20 -20 -40 -20 -106 l0 -81 163 2 162 3 3 77
c2 67 0 81 -18 100 -13 15 -20 35 -20 64 0 35 5 47 31 68 39 33 79 33 117 1
41 -35 47 -68 22 -119 -15 -31 -20 -62 -20 -119 l0 -77 160 0 160 0 0 84 c0
60 -4 87 -14 95 -8 7 -18 26 -21 42 -19 86 80 152 148 99 22 -17 40 -20 135
-20 107 0 110 1 126 25 26 39 75 65 125 65 130 0 196 -150 107 -244 -64 -68
-155 -66 -218 4 l-36 41 -114 -3 -113 -3 -3 -92 -3 -93 81 0 80 0 0 -85 0 -85
71 0 c56 0 76 4 96 20 47 37 114 20 139 -34 43 -90 -61 -177 -139 -116 -20 16
-40 20 -96 20 l-71 0 0 -160 0 -160 68 0 c47 0 79 6 105 19 43 22 87 15 121
-19 29 -29 28 -91 -3 -124 -34 -36 -66 -40 -115 -16 -30 14 -62 20 -109 20
l-67 0 0 -160 0 -160 72 0 c50 0 76 5 88 15 10 9 34 18 53 22 32 5 41 1 72
-30 40 -40 44 -68 15 -115 -17 -27 -20 -50 -20 -146 0 -111 1 -114 25 -130 59
-39 82 -124 50 -185 -8 -16 -28 -40 -45 -55 -40 -34 -118 -36 -168 -6 -34 21
-72 87 -72 125 0 37 39 105 70 123 l30 17 0 116 c0 76 -4 119 -12 127 -7 7
-41 12 -84 12 -78 0 -74 3 -88 -60 -8 -37 -62 -88 -107 -102 l-39 -11 0 -76
c0 -60 5 -85 22 -119 l23 -42 -20 -37 c-26 -47 -67 -65 -115 -49 -61 20 -86
101 -44 147 10 11 14 41 14 97 l0 82 -160 0 -160 0 0 -85 c0 -47 4 -85 8 -85
12 0 32 -47 32 -75 0 -13 -12 -37 -26 -54 -21 -26 -33 -31 -69 -31 -81 0 -125
87 -75 150 16 20 20 41 20 103 l0 77 -165 0 -165 0 0 -79 c0 -47 4 -83 11 -87
6 -3 17 -22 25 -40 12 -29 12 -39 0 -68 -17 -41 -42 -56 -91 -56 -25 0 -43 8
-61 25 -24 24 -30 25 -148 25 -121 0 -123 0 -134 -25 -30 -66 -153 -88 -212
-39 -84 72 -79 189 12 244 66 40 172 16 200 -45 l11 -26 136 3 136 3 3 82 3
82 -93 3 -93 3 -3 83 -3 82 -73 0 c-53 0 -77 -4 -86 -15 -22 -26 -76 -29 -115
-6 -26 15 -53 21 -98 21 -57 0 -63 -2 -78 -28 -33 -58 -135 -80 -197 -42 -52
32 -74 76 -69 138 3 45 9 59 40 89 30 31 44 37 90 41 64 5 110 -15 135 -59 16
-27 21 -29 79 -29 45 0 72 6 98 21 39 23 93 20 115 -6 9 -11 33 -15 86 -15
l74 0 0 160 0 160 -74 0 c-41 0 -77 -4 -81 -9 -3 -5 -21 -15 -40 -21 -93 -31
-165 82 -96 151 33 33 91 39 125 14 13 -10 44 -15 93 -15 l73 0 0 160 0 160
-71 0 c-56 0 -76 -4 -96 -20 -14 -11 -40 -20 -58 -20 -18 0 -44 9 -58 20 -22
17 -40 20 -131 20 l-106 0 0 -32 c0 -24 9 -39 40 -65 144 -124 -26 -343 -181
-233 -80 57 -75 193 8 242 l33 20 0 89 0 89 155 0 c144 0 158 2 185 21 33 25
89 22 120 -6 12 -10 38 -15 88 -15 l72 0 0 85 0 85 95 0 95 0 0 81 c0 66 -4
86 -20 106 -11 14 -20 40 -20 58 0 18 9 44 20 58 16 20 20 40 20 94 0 64 -2
69 -30 88 -82 54 -79 190 5 245 38 25 116 27 157 3z m2474 -220 c82 -98 212
-252 288 -343 76 -91 154 -183 172 -204 l34 -40 0 367 0 367 -45 0 c-33 0 -45
4 -45 15 0 12 19 15 110 15 91 0 110 -3 110 -15 0 -11 -12 -15 -45 -15 l-45 0
0 -411 c0 -254 -4 -408 -9 -404 -9 5 -623 728 -656 772 -12 15 -14 -31 -15
-344 l0 -363 45 0 c38 0 45 -3 45 -20 0 -19 -7 -20 -110 -20 -103 0 -110 1
-110 20 0 17 7 20 45 20 l45 0 0 375 0 375 -45 0 c-33 0 -45 4 -45 15 0 12 14
15 64 15 l63 0 149 -177z m1274 87 c0 -83 -1 -90 -20 -90 -18 0 -20 7 -20 75
l0 75 -202 -2 -203 -3 0 -175 0 -175 202 -5 c156 -4 201 -8 195 -17 -6 -9 -62
-13 -202 -15 l-195 -3 0 -175 0 -175 48 -3 c39 -3 47 -6 47 -23 0 -18 -8 -19
-110 -19 -103 0 -110 1 -110 20 0 17 7 20 45 20 l45 0 0 375 0 375 -45 0 c-33
0 -45 4 -45 15 0 13 38 15 285 15 l285 0 0 -90z m720 0 c0 -72 -3 -90 -15 -90
-11 0 -15 17 -17 73 l-3 72 -132 3 -133 3 0 -376 0 -375 45 0 c38 0 45 -3 45
-20 0 -19 -7 -20 -110 -20 -103 0 -110 1 -110 20 0 17 7 20 45 20 l45 0 0 375
0 376 -132 -3 -133 -3 -3 -72 c-2 -56 -6 -73 -17 -73 -12 0 -15 18 -15 90 l0
90 320 0 320 0 0 -90z m4060 -1170 c0 -333 0 -340 -20 -340 -20 0 -20 7 -20
340 0 333 0 340 20 340 20 0 20 -7 20 -340z m-5800 276 c99 -31 100 -31 100
-108 0 -54 -3 -68 -15 -68 -12 0 -15 13 -15 56 0 54 -1 55 -36 70 -98 41 -218
38 -312 -8 -65 -32 -143 -112 -178 -183 -27 -55 -29 -69 -29 -165 1 -95 3
-110 28 -158 55 -106 144 -180 249 -208 77 -20 130 -17 215 11 61 21 78 23 85
13 5 -9 -7 -20 -45 -38 -46 -22 -65 -25 -163 -25 -106 0 -113 1 -178 34 -77
40 -161 123 -194 195 -130 275 71 595 373 596 39 0 90 -6 115 -14z m734 -10
c85 -30 158 -87 207 -160 54 -81 72 -147 67 -254 -3 -73 -8 -98 -35 -154 -41
-88 -113 -160 -201 -201 -63 -30 -74 -32 -177 -32 -104 0 -114 2 -177 33 -86
42 -177 137 -209 219 -18 46 -23 78 -23 158 -1 92 1 105 31 167 96 203 315
298 517 224z m3558 -8 l57 -26 -2 -64 c-2 -51 -5 -63 -19 -66 -15 -3 -18 5
-18 53 l0 56 -47 21 c-36 15 -69 21 -133 21 -75 0 -93 -3 -150 -31 -205 -98
-284 -319 -186 -517 92 -186 309 -265 492 -178 26 13 37 14 46 5 17 -17 3 -27
-69 -51 -199 -67 -418 26 -508 214 -107 227 7 491 249 577 77 28 212 21 288
-14z m1225 1 l48 -24 3 -67 c3 -63 1 -68 -18 -68 -18 0 -20 6 -20 59 l0 59
-40 16 c-62 25 -145 21 -195 -9 -57 -33 -79 -79 -73 -158 4 -54 8 -63 38 -89
21 -17 77 -42 144 -63 128 -42 167 -64 195 -108 75 -122 29 -271 -101 -327
-97 -42 -249 -17 -325 53 -19 17 -23 31 -23 79 0 51 2 58 20 58 18 0 20 -7 20
-55 0 -53 1 -56 39 -80 183 -115 420 18 361 201 -24 74 -67 104 -211 148 -99
30 -144 57 -176 105 -26 38 -30 100 -12 164 13 47 72 109 119 125 53 17 152 8
207 -19z m-4212 -77 c44 -53 152 -182 240 -287 87 -104 194 -232 237 -283 l78
-93 0 365 0 366 -45 0 c-33 0 -45 4 -45 15 0 12 19 15 110 15 91 0 110 -3 110
-15 0 -11 -12 -15 -45 -15 l-45 0 -2 -411 -3 -411 -75 89 c-41 48 -187 221
-324 383 -137 162 -255 302 -262 310 -12 12 -14 -41 -14 -348 l0 -362 48 0
c37 0 49 -4 49 -15 0 -12 -20 -15 -114 -15 -94 0 -113 3 -113 15 0 11 12 15
45 15 l45 0 0 375 0 375 -45 0 c-33 0 -45 4 -45 15 0 12 14 15 68 14 l67 0 80
-97z m1038 -72 c76 -91 191 -228 255 -304 65 -77 145 -172 180 -213 l62 -74 0
365 0 366 -45 0 c-33 0 -45 4 -45 15 0 12 19 15 110 15 91 0 110 -3 110 -15 0
-11 -12 -15 -45 -15 l-45 0 -2 -411 -3 -411 -318 375 c-175 207 -326 386 -337
399 -19 23 -19 20 -20 -339 l0 -363 45 0 c33 0 45 -4 45 -15 0 -12 -19 -15
-110 -15 -91 0 -110 3 -110 15 0 11 12 15 45 15 l45 0 0 375 0 375 -45 0 c-34
0 -45 4 -45 15 0 13 12 15 67 13 l67 -3 139 -165z m1277 80 c0 -72 -3 -90 -15
-90 -11 0 -15 17 -17 73 l-3 72 -202 3 -203 2 0 -175 0 -175 193 0 c107 0 196
-3 200 -6 3 -3 3 -12 0 -20 -4 -11 -42 -14 -199 -14 l-194 0 0 -180 0 -180
210 0 210 0 0 75 c0 68 2 75 20 75 19 0 20 -7 20 -90 l0 -90 -295 0 c-256 0
-295 2 -295 15 0 11 12 15 45 15 l45 0 0 375 0 375 -45 0 c-33 0 -45 4 -45 15
0 13 38 15 285 15 l285 0 0 -90z m1450 0 c0 -83 -1 -90 -20 -90 -18 0 -20 7
-20 75 l0 76 -132 -3 -133 -3 -3 -372 -2 -373 50 0 c38 0 50 -4 50 -15 0 -12
-19 -15 -115 -15 -96 0 -115 3 -115 15 0 11 12 15 50 15 l50 0 0 375 0 375
-135 0 -135 0 0 -75 c0 -68 -2 -75 -20 -75 -19 0 -20 7 -20 90 l0 90 325 0
325 0 0 -90z m-6182 -150 c127 -77 74 -273 -73 -273 -60 0 -105 29 -134 86
-22 44 -23 52 -11 90 6 23 19 51 28 61 50 57 131 72 190 36z m6917 -510 c0
-18 -6 -26 -23 -28 -13 -2 -25 3 -28 12 -10 26 4 48 28 44 17 -2 23 -10 23
-28z m-4935 -400 c0 -13 -7 -20 -20 -20 -13 0 -20 7 -20 20 0 13 7 20 20 20
13 0 20 -7 20 -20z m416 -15 c-1 -34 0 -35 27 -29 44 9 57 -9 57 -82 0 -50 -3
-64 -15 -64 -11 0 -15 12 -15 44 0 53 -8 76 -25 76 -18 0 -29 -36 -26 -82 2
-33 0 -38 -18 -38 -20 0 -21 5 -21 105 0 96 2 105 19 105 15 0 19 -7 17 -35z
m454 -47 c0 -46 3 -92 6 -104 5 -18 1 -20 -48 -21 -64 -1 -88 16 -88 64 0 39
37 83 70 83 16 0 20 6 20 30 0 23 4 30 20 30 18 0 20 -7 20 -82z m70 62 c0
-11 -6 -20 -14 -20 -18 0 -29 16 -21 30 11 18 35 11 35 -10z m230 0 c0 -11 -6
-20 -14 -20 -18 0 -29 16 -21 30 11 18 35 11 35 -10z m330 -70 c0 -73 3 -90
15 -90 8 0 15 -7 15 -15 0 -22 -47 -19 -60 4 -11 22 -14 174 -3 184 3 4 12 7
20 7 10 0 13 -22 13 -90z m645 1 c0 -59 4 -86 13 -88 6 -3 12 -11 12 -19 0
-11 -8 -14 -27 -12 l-28 3 -3 103 c-2 95 -1 103 15 100 16 -3 18 -15 18 -87z
m165 7 c0 -46 3 -92 6 -104 5 -18 1 -20 -48 -21 -64 -1 -88 16 -88 64 0 39 37
83 70 83 16 0 20 6 20 30 0 23 4 30 20 30 18 0 20 -7 20 -82z m-3649 30 l22
-43 20 43 c13 26 28 42 39 42 23 0 23 0 -12 -70 -16 -33 -30 -75 -30 -95 0
-28 -4 -35 -20 -35 -17 0 -20 7 -20 40 0 25 -11 63 -30 100 -29 57 -29 60 -10
60 13 0 27 -14 41 -42z m1185 -8 c8 0 14 -7 14 -15 0 -8 -7 -15 -15 -15 -11 0
-15 -12 -15 -45 0 -38 3 -45 20 -45 11 0 20 -7 20 -15 0 -22 -57 -20 -68 3 -5
9 -10 35 -11 57 -2 22 -7 42 -12 43 -15 6 -10 32 6 32 8 0 15 6 15 14 0 22 25
25 28 4 2 -10 10 -18 18 -18z m474 20 c0 -11 6 -20 14 -20 24 0 30 -21 7 -27
-17 -4 -21 -13 -21 -49 0 -37 3 -44 20 -44 11 0 20 -7 20 -15 0 -18 -50 -21
-68 -3 -7 7 -12 34 -12 60 0 26 -4 48 -10 48 -16 0 -12 17 13 44 27 31 37 33
37 6z m940 0 c0 -11 7 -20 15 -20 8 0 15 -7 15 -15 0 -8 -7 -15 -15 -15 -11 0
-15 -12 -15 -44 0 -37 4 -45 22 -50 32 -8 9 -29 -28 -24 -28 3 -29 5 -32 61
-2 42 -7 57 -17 57 -8 0 -15 7 -15 15 0 8 7 15 15 15 8 0 15 6 15 14 0 13 13
23 33 25 4 1 7 -8 7 -19z m-2398 -37 c25 -23 25 -94 -2 -118 -45 -41 -110 -9
-110 55 0 66 67 104 112 63z m86 -46 c2 -41 7 -57 17 -57 21 0 35 33 35 79 0
30 4 41 15 41 11 0 15 -11 15 -37 0 -21 3 -55 6 -75 5 -31 4 -38 -10 -38 -9 0
-16 4 -16 9 0 5 -14 4 -30 -2 -50 -19 -64 -2 -68 77 -3 61 -1 67 15 64 14 -3
19 -15 21 -61z m167 53 c10 16 45 12 45 -5 0 -9 -11 -20 -25 -25 -22 -8 -25
-15 -25 -60 0 -43 -3 -50 -19 -50 -17 0 -20 9 -23 68 -3 67 6 90 28 71 8 -7
14 -6 19 1z m241 2 c6 -4 15 -37 18 -74 7 -58 5 -68 -8 -68 -9 0 -16 5 -16 12
0 9 -3 9 -12 0 -17 -17 -63 -15 -79 4 -22 26 -15 95 11 116 23 18 66 24 86 10z
m128 2 c26 -10 18 -24 -14 -24 -16 0 -30 -4 -30 -10 0 -5 14 -16 30 -25 59
-31 19 -109 -44 -86 -37 15 -34 35 4 28 21 -5 30 -3 30 6 0 7 -13 23 -30 35
-34 25 -37 43 -14 66 16 17 41 20 68 10z m120 0 c22 -9 10 -24 -20 -24 -33 0
-30 -16 6 -35 32 -16 40 -51 18 -73 -15 -15 -74 -16 -83 -2 -11 17 5 31 24 21
9 -5 23 -6 30 -2 8 6 2 16 -23 35 -39 30 -44 46 -20 70 16 17 41 20 68 10z
m144 -6 c7 -7 12 -23 12 -36 0 -18 -9 -27 -40 -39 -31 -12 -38 -19 -29 -29 7
-8 22 -11 41 -7 24 5 30 3 26 -8 -7 -21 -76 -24 -99 -3 -42 38 -7 134 50 134
15 0 32 -5 39 -12z m252 -47 c0 -33 5 -63 10 -66 18 -11 10 -25 -14 -25 -30 0
-36 16 -36 91 0 52 2 59 20 59 18 0 20 -7 20 -59z m92 50 c51 27 78 -9 78
-102 0 -32 -3 -39 -20 -39 -18 0 -20 7 -20 54 0 30 -5 58 -10 61 -22 13 -40
-17 -40 -66 0 -42 -3 -49 -19 -49 -17 0 -20 9 -23 68 -3 64 7 91 26 72 5 -5
17 -5 28 1z m552 -13 c17 -28 -4 -54 -69 -82 -15 -7 16 -25 32 -19 7 3 21 2
30 -1 15 -6 15 -8 3 -16 -23 -15 -77 -12 -94 6 -23 23 -21 89 5 115 24 24 77
23 93 -3z m296 -37 c0 -33 5 -63 10 -66 16 -10 11 -25 -8 -25 -31 0 -42 22
-42 80 0 59 4 70 27 70 9 0 13 -17 13 -59z m146 51 c15 -10 26 -159 14 -183
-8 -14 -22 -19 -54 -19 -46 0 -57 5 -50 24 3 7 18 10 39 8 21 -3 35 0 35 7 0
6 1 14 3 18 1 5 -14 7 -34 5 -43 -4 -69 23 -69 71 0 53 74 97 116 69z m84 -51
c0 -33 5 -63 10 -66 16 -10 11 -25 -8 -25 -31 0 -42 22 -42 80 0 59 4 70 27
70 9 0 13 -17 13 -59z m246 51 c17 -11 27 -142 11 -142 -7 0 -18 5 -25 12 -9
9 -12 9 -12 0 0 -7 -13 -12 -29 -12 -59 0 -82 80 -36 125 24 25 68 33 91 17z
m244 -51 c0 -33 4 -62 8 -65 18 -11 31 13 34 64 2 43 7 56 21 58 15 3 17 -5
17 -56 0 -64 6 -78 27 -61 8 7 13 32 13 65 0 47 2 54 20 54 17 0 20 -7 20 -53
0 -82 -15 -96 -106 -95 -71 0 -76 1 -85 25 -10 28 -12 106 -2 116 3 4 12 7 20
7 9 0 13 -17 13 -59z m287 51 c43 -28 33 -123 -15 -140 -73 -25 -121 58 -71
122 20 26 60 34 86 18z m103 -2 c22 14 40 12 40 -5 0 -9 -11 -20 -25 -25 -22
-8 -25 -15 -25 -60 0 -43 -3 -50 -19 -50 -17 0 -20 9 -23 68 -3 66 6 90 27 72
6 -5 17 -5 25 0z"/>
<path d="M2546 5894 c-10 -26 10 -50 41 -49 31 0 43 26 23 50 -16 20 -56 19
-64 -1z"/>
<path d="M3857 5543 c-12 -12 -7 -50 8 -63 12 -10 21 -10 40 -2 25 12 30 27
19 56 -6 16 -54 22 -67 9z"/>
<path d="M2445 5158 c-3 -7 -4 -255 -3 -551 l3 -537 540 -1 c503 0 540 1 552
17 10 14 13 133 13 551 l0 533 -550 0 c-431 0 -552 -3 -555 -12z m815 -543 l0
-265 -265 0 -265 0 0 258 c0 142 3 262 7 265 3 4 123 7 265 7 l258 0 0 -265z"/>
<path d="M2840 4615 l0 -155 155 0 155 0 0 155 0 155 -155 0 -155 0 0 -155z"/>
<path d="M1724 4806 c-15 -40 21 -80 54 -60 37 24 21 74 -25 74 -13 0 -26 -6
-29 -14z"/>
<path d="M1732 4208 c-7 -7 -12 -22 -12 -35 0 -27 42 -42 65 -23 28 23 11 70
-25 70 -9 0 -21 -5 -28 -12z"/>
<path d="M2077 3763 c-11 -11 -8 -48 5 -61 32 -32 80 8 58 48 -10 19 -49 27
-63 13z"/>
<path d="M3860 3755 c-26 -32 13 -81 48 -59 34 22 22 74 -18 74 -10 0 -23 -7
-30 -15z"/>
<path d="M5902 4949 c-105 -20 -208 -100 -262 -201 -29 -54 -35 -75 -38 -150
-3 -65 0 -101 13 -140 40 -124 142 -220 267 -254 262 -69 520 171 468 436 -30
156 -155 281 -310 310 -60 11 -77 11 -138 -1z"/>
<path d="M4160 4635 c-31 -38 27 -83 62 -47 16 16 18 23 9 41 -13 24 -53 28
-71 6z"/>
<path d="M7036 3744 c-11 -28 -6 -72 8 -77 21 -8 36 14 36 55 0 31 -4 38 -19
38 -10 0 -22 -7 -25 -16z"/>
<path d="M8476 3744 c-10 -25 -7 -59 6 -72 19 -19 38 6 38 49 0 32 -4 39 -19
39 -10 0 -22 -7 -25 -16z"/>
<path d="M5047 3754 c-13 -13 -7 -71 8 -84 23 -19 37 0 33 46 -3 37 -23 56
-41 38z"/>
<path d="M5535 3731 c-4 -17 -1 -40 6 -52 l12 -23 18 23 c11 13 19 36 19 52 0
24 -4 29 -24 29 -19 0 -26 -7 -31 -29z"/>
<path d="M5934 3745 c-4 -9 -3 -19 0 -23 9 -8 42 12 39 24 -4 16 -33 16 -39
-1z"/>
<path d="M6823 3745 c-3 -9 -3 -18 -1 -21 9 -9 38 8 38 22 0 19 -29 18 -37 -1z"/>
<path d="M7266 3744 c-10 -25 -7 -59 6 -72 19 -19 38 6 38 49 0 32 -4 39 -19
39 -10 0 -22 -7 -25 -16z"/>
<path d="M7596 3744 c-10 -25 -7 -59 6 -72 19 -19 38 6 38 49 0 32 -4 39 -19
39 -10 0 -22 -7 -25 -16z"/>
<path d="M8134 3734 c-7 -28 9 -74 26 -74 16 0 29 42 23 73 -7 36 -40 37 -49
1z"/>
</g>
</svg>
